<svg xmlns="http://www.w3.org/2000/svg" viewBox="0 0 320 320" role="img" aria-label="UPI QR placeholder">
  <rect width="320" height="320" rx="24" fill="#ffffff"/>
  <rect x="24" y="24" width="88" height="88" fill="#111111"/>
  <rect x="36" y="36" width="64" height="64" fill="#ffffff"/>
  <rect x="48" y="48" width="40" height="40" fill="#111111"/>
  <rect x="208" y="24" width="88" height="88" fill="#111111"/>
  <rect x="220" y="36" width="64" height="64" fill="#ffffff"/>
  <rect x="232" y="48" width="40" height="40" fill="#111111"/>
  <rect x="24" y="208" width="88" height="88" fill="#111111"/>
  <rect x="36" y="220" width="64" height="64" fill="#ffffff"/>
  <rect x="48" y="232" width="40" height="40" fill="#111111"/>
  <rect x="136" y="32" width="16" height="16" fill="#111111"/>
  <rect x="168" y="32" width="16" height="16" fill="#111111"/>
  <rect x="136" y="48" width="16" height="16" fill="#111111"/>
  <rect x="152" y="64" width="16" height="16" fill="#111111"/>
  <rect x="184" y="64" width="16" height="16" fill="#111111"/>
  <rect x="120" y="88" width="16" height="16" fill="#111111"/>
  <rect x="152" y="88" width="16" height="16" fill="#111111"/>
  <rect x="184" y="88" width="16" height="16" fill="#111111"/>
  <rect x="120" y="120" width="16" height="16" fill="#111111"/>
  <rect x="152" y="120" width="16" height="16" fill="#111111"/>
  <rect x="184" y="120" width="16" height="16" fill="#111111"/>
  <rect x="216" y="120" width="16" height="16" fill="#111111"/>
  <rect x="248" y="120" width="16" height="16" fill="#111111"/>
  <rect x="104" y="136" width="16" height="16" fill="#111111"/>
  <rect x="136" y="136" width="16" height="16" fill="#111111"/>
  <rect x="168" y="136" width="16" height="16" fill="#111111"/>
  <rect x="200" y="136" width="16" height="16" fill="#111111"/>
  <rect x="232" y="136" width="16" height="16" fill="#111111"/>
  <rect x="264" y="136" width="16" height="16" fill="#111111"/>
  <rect x="120" y="152" width="16" height="16" fill="#111111"/>
  <rect x="152" y="152" width="16" height="16" fill="#111111"/>
  <rect x="184" y="152" width="16" height="16" fill="#111111"/>
  <rect x="216" y="152" width="16" height="16" fill="#111111"/>
  <rect x="248" y="152" width="16" height="16" fill="#111111"/>
  <rect x="88" y="168" width="16" height="16" fill="#111111"/>
  <rect x="120" y="168" width="16" height="16" fill="#111111"/>
  <rect x="168" y="168" width="16" height="16" fill="#111111"/>
  <rect x="200" y="168" width="16" height="16" fill="#111111"/>
  <rect x="232" y="168" width="16" height="16" fill="#111111"/>
  <rect x="264" y="168" width="16" height="16" fill="#111111"/>
  <rect x="120" y="184" width="16" height="16" fill="#111111"/>
  <rect x="152" y="184" width="16" height="16" fill="#111111"/>
  <rect x="184" y="184" width="16" height="16" fill="#111111"/>
  <rect x="216" y="184" width="16" height="16" fill="#111111"/>
  <rect x="248" y="184" width="16" height="16" fill="#111111"/>
  <rect x="120" y="216" width="16" height="16" fill="#111111"/>
  <rect x="152" y="216" width="16" height="16" fill="#111111"/>
  <rect x="184" y="216" width="16" height="16" fill="#111111"/>
  <rect x="216" y="216" width="16" height="16" fill="#111111"/>
  <rect x="248" y="216" width="16" height="16" fill="#111111"/>
  <rect x="136" y="232" width="16" height="16" fill="#111111"/>
  <rect x="168" y="232" width="16" height="16" fill="#111111"/>
  <rect x="200" y="232" width="16" height="16" fill="#111111"/>
  <rect x="232" y="232" width="16" height="16" fill="#111111"/>
  <rect x="136" y="248" width="16" height="16" fill="#111111"/>
  <rect x="168" y="248" width="16" height="16" fill="#111111"/>
  <rect x="216" y="248" width="16" height="16" fill="#111111"/>
  <rect x="248" y="248" width="16" height="16" fill="#111111"/>
  <rect x="136" y="264" width="16" height="16" fill="#111111"/>
  <rect x="184" y="264" width="16" height="16" fill="#111111"/>
  <rect x="216" y="264" width="16" height="16" fill="#111111"/>
  <rect x="264" y="264" width="16" height="16" fill="#111111"/>
</svg>
